<?xml version="1.0" standalone="no"?>
<!DOCTYPE svg PUBLIC "-//W3C//DTD SVG 20010904//EN"
 "http://www.w3.org/TR/2001/REC-SVG-20010904/DTD/svg10.dtd">
<svg version="1.0" xmlns="http://www.w3.org/2000/svg"
 width="640.000000pt" height="640.000000pt" viewBox="0 0 640.000000 640.000000"
 preserveAspectRatio="xMidYMid meet">

<g transform="translate(0.000000,640.000000) scale(0.100000,-0.100000)"
fill="#000000" stroke="none">
<path d="M2975 6394 c-354 -36 -612 -91 -875 -189 -448 -166 -823 -407 -1160
-745 -513 -512 -814 -1125 -916 -1865 -14 -98 -18 -195 -18 -395 0 -283 11
-403 60 -645 252 -1243 1247 -2238 2489 -2489 242 -49 362 -60 645 -60 352 0
583 31 889 120 526 153 980 423 1371 814 512 511 815 1128 916 1865 14 98 18
195 18 395 0 283 -11 404 -60 645 -100 491 -319 957 -640 1360 -113 141 -348
376 -489 489 -470 375 -1010 604 -1609 682 -114 15 -531 27 -621 18z m561
-550 c476 -61 925 -248 1304 -543 111 -86 312 -282 412 -401 163 -194 325
-466 423 -710 274 -681 251 -1456 -61 -2118 -109 -232 -282 -491 -440 -660
l-69 -73 -55 42 c-201 154 -486 314 -735 412 -537 212 -1134 265 -1713 152
-435 -85 -886 -287 -1241 -557 l-66 -50 -69 74 c-254 273 -478 669 -585 1038
-73 253 -104 478 -104 750 0 277 32 503 108 760 175 594 576 1130 1101 1474
386 252 829 397 1314 430 95 6 360 -5 476 -20z m-53 -4389 c399 -47 760 -177
1094 -393 57 -37 103 -70 103 -74 0 -11 -154 -103 -280 -167 -276 -141 -582
-233 -905 -272 -129 -16 -461 -16 -590 0 -323 39 -629 131 -905 272 -126 64
-280 156 -280 167 0 12 198 136 310 195 266 141 570 234 880 272 147 18 421
18 573 0z"/>
<path d="M3005 4786 c-585 -97 -1024 -530 -1120 -1105 -21 -123 -16 -373 9
-486 56 -250 172 -469 345 -648 200 -208 440 -337 727 -393 120 -23 348 -23
468 0 485 94 878 434 1030 889 51 155 61 227 60 437 0 185 -2 201 -31 310
-138 513 -513 871 -1033 985 -102 22 -352 28 -455 11z m413 -552 c220 -64 394
-208 492 -408 71 -143 85 -204 84 -361 0 -154 -15 -218 -79 -350 -79 -163
-195 -279 -360 -361 -123 -61 -222 -84 -355 -84 -133 0 -232 23 -355 84 -165
82 -281 198 -360 361 -64 132 -79 196 -79 350 -1 157 13 218 84 361 114 233
345 398 609 435 86 12 226 0 319 -27z"/>
</g>
</svg>
