<?xml version="1.0" standalone="no"?>
<!DOCTYPE svg PUBLIC "-//W3C//DTD SVG 20010904//EN"
 "http://www.w3.org/TR/2001/REC-SVG-20010904/DTD/svg10.dtd">
<svg version="1.0" xmlns="http://www.w3.org/2000/svg"
 width="1280.000000pt" height="450.000000pt" viewBox="0 0 1280.000000 450.000000"
 preserveAspectRatio="xMidYMid meet">

<g transform="translate(0.000000,450.000000) scale(0.100000,-0.100000)"
fill="#000000" stroke="none">
<path d="M680 4215 c0 -4 299 -305 664 -670 l665 -665 -670 0 -669 0 0 -668 0
-667 663 -663 c364 -364 665 -662 670 -662 4 0 7 297 7 660 l0 660 666 2 667
3 -662 662 c-363 364 -661 664 -661 667 0 3 299 6 665 6 l665 0 0 670 0 670
-1335 0 c-734 0 -1335 -2 -1335 -5z"/>
<path d="M4340 2155 l0 -835 190 0 190 0 0 315 0 315 360 0 360 0 0 160 0 160
-357 2 -358 3 -3 198 -2 197 425 0 425 0 0 160 0 160 -615 0 -615 0 0 -835z"/>
<path d="M7028 2510 c-211 -26 -361 -119 -436 -269 -53 -107 -62 -101 156
-101 l189 0 13 25 c24 44 94 70 190 70 136 0 210 -47 210 -133 l0 -29 -122 -6
c-498 -26 -762 -197 -719 -466 24 -150 126 -252 291 -292 77 -19 278 -16 364
5 79 19 149 54 199 100 l35 31 45 -41 c57 -51 132 -74 269 -82 l98 -5 0 162 0
161 -24 0 c-49 0 -56 27 -56 230 0 254 -11 336 -53 414 -40 73 -125 146 -207
177 -118 45 -309 66 -442 49z m322 -708 c0 -135 -125 -236 -291 -235 -116 0
-179 49 -165 126 16 86 178 146 424 156 32 1 32 1 32 -47z"/>
<path d="M8590 2510 c-104 -15 -166 -46 -247 -124 l-43 -40 0 72 0 72 -180 0
-180 0 0 -585 0 -585 189 0 189 0 4 338 c4 325 5 339 27 397 28 72 62 111 116
135 101 45 196 33 257 -31 64 -67 68 -96 68 -491 l0 -348 189 0 189 0 5 328
c5 352 10 396 61 472 33 50 78 76 153 89 117 22 200 -22 238 -126 16 -42 19
-94 23 -405 l4 -358 190 0 190 0 -5 398 c-4 430 -8 465 -63 575 -78 154 -199
218 -419 220 -169 1 -278 -38 -379 -135 l-60 -57 -52 57 c-56 62 -126 102
-209 120 -72 16 -191 21 -255 12z"/>
<path d="M10660 2510 c-90 -9 -202 -46 -270 -90 -71 -45 -163 -148 -199 -222
-47 -96 -65 -178 -64 -298 1 -185 48 -306 168 -425 127 -128 259 -178 470
-177 183 1 337 50 436 139 48 43 123 145 144 197 l15 36 -194 0 c-168 0 -195
-2 -207 -17 -28 -33 -99 -56 -179 -56 -85 0 -136 14 -193 51 -41 28 -87 96
-87 130 l0 22 441 0 442 0 -6 113 c-11 201 -57 318 -171 433 -39 39 -94 83
-123 97 -111 57 -272 82 -423 67z m252 -329 c53 -25 85 -63 94 -110 l7 -31
-257 0 c-174 0 -256 3 -256 11 0 32 58 102 105 126 53 28 78 32 170 30 70 -2
101 -8 137 -26z"/>
<path d="M5640 1905 l0 -585 189 0 188 0 6 293 c6 308 16 396 56 461 40 64
139 96 298 96 l83 0 0 161 0 161 -117 -4 c-144 -4 -205 -28 -283 -109 l-50
-52 0 81 0 82 -185 0 -185 0 0 -585z"/>
<path d="M11490 1905 l0 -585 190 0 190 0 0 218 c1 368 23 505 91 566 48 44
96 57 239 65 l115 6 0 155 0 155 -120 0 c-111 0 -124 -2 -176 -28 -31 -15 -77
-50 -103 -77 -26 -28 -49 -50 -51 -50 -3 0 -5 36 -5 80 l0 80 -185 0 -185 0 0
-585z"/>
</g>
</svg>
